<svg id="Layer_1" data-name="Layer 1" xmlns="http://www.w3.org/2000/svg" viewBox="0 0 192 192"><defs><style>.cls-1,.cls-2{fill:none;stroke-linecap:round;stroke-miterlimit:10;stroke-width:5.00px;}.cls-1{stroke:#C32640;}.cls-2{stroke:#C32640;}</style></defs><path class="cls-1" d="M74.14,134.93,72.77,114.2a27.57,27.57,0,0,0-9.22-18.62A48.59,48.59,0,0,1,96.24,10.82c.67,0,1.35,0,2,0,22.35,1,41.13,17.71,45.4,39.17a45.45,45.45,0,0,1,.85,6.75A48.64,48.64,0,0,1,126.76,97a19.78,19.78,0,0,0-7,11.81,14.39,14.39,0,0,0-.25,2l-1.62,24.07v.05"></path><path class="cls-2" d="M106.08,26.52a42.09,42.09,0,0,1,24.19,28.2c.17.66.33,1.33.47,2"></path><line class="cls-1" x1="78.18" y1="149.73" x2="112.29" y2="149.73"></line><path class="cls-2" d="M112.25,164.13a17.06,17.06,0,1,1-34.11,0"></path></svg>