<svg id="Layer_1" data-name="Layer 1" xmlns="http://www.w3.org/2000/svg" viewBox="0 0 192 192"><defs><style>.cls-1,.cls-2{fill:none;stroke-linecap:round;stroke-width:5.00px;}.cls-1{stroke:#C32640;stroke-miterlimit:10;}.cls-2{stroke:#C32640;stroke-linejoin:round;}</style></defs><path class="cls-1" d="M27.54,112.9A34.2,34.2,0,0,1,11.1,83.66V62.82A34.22,34.22,0,0,1,45.32,28.6H87.55a34.24,34.24,0,0,1,31.53,20.9"></path><path class="cls-1" d="M27.54,114.46v11.38a3.46,3.46,0,0,0,5.23,3l17.06-10.49a3,3,0,0,1,1.57-.44h4.22"></path><path class="cls-1" d="M164.46,147a34.21,34.21,0,0,0,16.44-29.25V96.92A34.22,34.22,0,0,0,146.68,62.7H104.45A34.22,34.22,0,0,0,70.23,96.92v20.83A34.22,34.22,0,0,0,104.45,152h22.4"></path><circle class="cls-2" cx="151.82" cy="107.34" r="8.01"></circle><circle class="cls-2" cx="125.57" cy="107.34" r="8.01"></circle><circle class="cls-2" cx="99.31" cy="107.34" r="8.01"></circle><path class="cls-1" d="M141.45,152l17.78,10.94a3.46,3.46,0,0,0,5.23-3V148.55"></path></svg>