<svg id="Layer_1" data-name="Layer 1" xmlns="http://www.w3.org/2000/svg" viewBox="0 0 192 192"><defs><style>.cls-1,.cls-2{fill:none;stroke-linecap:round;stroke-linejoin:round;stroke-width:5.00px;}.cls-1{stroke:#C32640;}.cls-2{stroke:#C32640;}</style></defs><path class="cls-1" d="M24,91.17H168L98.82,163.78a3,3,0,0,1-4.32,0Z"></path><polyline class="cls-1" points="95.63 162.59 67.6 91.17 82.14 57.26"></polyline><line class="cls-1" x1="120.34" y1="78.58" x2="111.2" y2="57.26"></line><line class="cls-1" x1="97.33" y1="162" x2="125.74" y2="91.17"></line><path class="cls-1" d="M24,91.17,50.91,58.36a3,3,0,0,1,2.32-1.1h87.86a3,3,0,0,1,2.4,1.2L168,91.17"></path><line class="cls-2" x1="42.7" y1="50.9" x2="42.7" y2="46.85"></line><line class="cls-2" x1="42.7" y1="31.33" x2="42.7" y2="27.29"></line><line class="cls-2" x1="50.76" y1="39.09" x2="54.82" y2="39.09"></line><line class="cls-2" x1="30.85" y1="39.09" x2="34.9" y2="39.09"></line><line class="cls-2" x1="139.47" y1="164.14" x2="139.47" y2="160.1"></line><line class="cls-2" x1="139.47" y1="144.57" x2="139.47" y2="140.53"></line><line class="cls-2" x1="147.53" y1="152.34" x2="151.59" y2="152.34"></line><line class="cls-2" x1="127.61" y1="152.34" x2="131.67" y2="152.34"></line></svg>