<svg id="Layer_1" data-name="Layer 1" xmlns="http://www.w3.org/2000/svg" viewBox="0 0 192 192"><defs><style>.cls-1,.cls-2{fill:none;stroke-linecap:round;stroke-width:5.00px;}.cls-1{stroke:#C32640;stroke-miterlimit:10;}.cls-2{stroke:#C32640;stroke-linejoin:round;}</style></defs><path class="cls-1" d="M144,69.57c.33-4.16.46-7.2.55-9.38a3,3,0,0,0-2.9-3.13,73.52,73.52,0,0,1-20.28-3.88A178.77,178.77,0,0,1,97.46,43a3,3,0,0,0-2.73,0A179.65,179.65,0,0,1,70.81,53.18a73.41,73.41,0,0,1-20.46,3.89,3,3,0,0,0-2.9,3,111.69,111.69,0,0,0,8.73,43.48c11.81,28.46,32.67,42,38.45,45.4a3,3,0,0,0,3,0c6-3.31,26.43-17,38.42-45.44a101.68,101.68,0,0,0,6.39-21.16"></path><path class="cls-2" d="M78.73,93.22,91.82,107.3a3,3,0,0,0,4.69-.37l16.76-25"></path></svg>