<svg id="Layer_1" data-name="Layer 1" xmlns="http://www.w3.org/2000/svg" viewBox="0 0 192 192"><defs><style>.cls-1,.cls-2{fill:none;stroke-linecap:round;stroke-linejoin:round;stroke-width:5.00px;}.cls-1{stroke:#C32640;}.cls-2{stroke:#C32640;}</style></defs><line class="cls-1" x1="37.01" y1="108.4" x2="22.95" y2="113.57"></line><path class="cls-2" d="M99,40.15l11.21,34.51a3.17,3.17,0,0,0,3,2.18h36.28a3.16,3.16,0,0,1,1.86,5.71L122,103.88a3.16,3.16,0,0,0-1.15,3.53L132,141.92a3.16,3.16,0,0,1-4.86,3.53L97.8,124.12a3.12,3.12,0,0,0-3.7,0L64.74,145.45a3.16,3.16,0,0,1-4.86-3.53L71.1,107.41A3.16,3.16,0,0,0,70,103.88L40.59,82.55a3.16,3.16,0,0,1,1.86-5.71H78.73a3.17,3.17,0,0,0,3-2.18L93,40.15A3.15,3.15,0,0,1,99,40.15Z"></path><line class="cls-1" x1="95.95" y1="154.04" x2="95.95" y2="169.02"></line><line class="cls-1" x1="154.99" y1="108.4" x2="169.05" y2="113.57"></line><line class="cls-1" x1="58.5" y1="34.76" x2="49.25" y2="22.98"></line><line class="cls-1" x1="133.4" y1="34.76" x2="142.65" y2="22.98"></line></svg>